<?xml version="1.0" encoding="utf-8"?>
<!-- Generator: Adobe Illustrator 25.0.1, SVG Export Plug-In . SVG Version: 6.00 Build 0)  -->
<svg version="1.1" id="Layer_1" xmlns="http://www.w3.org/2000/svg" xmlns:xlink="http://www.w3.org/1999/xlink" x="0px" y="0px"
	 viewBox="0 0 595.28 841.89" style="enable-background:new 0 0 595.28 841.89;" xml:space="preserve">
<style type="text/css">
	.st0{fill:#FDBC4D;}
	.st1{fill:#58BD83;}
	.st2{fill:#94D0A7;}
	.st3{fill:#5ABE84;}
	.st4{fill:#99D2AB;}
	.st5{fill:#C6E5CF;}
	.st6{fill:#C8E6D1;}
	.st7{fill:#FFFFFF;}
	.st8{fill:#CDE8D9;}
	.st9{fill:#E3F2EA;}
	.st10{fill:#E4F2EA;}
	.st11{fill:#D2EBDD;}
	.st12{fill:#CEE9DA;}
	.st13{fill:#D3EBDE;}
	.st14{fill:#D1EADC;}
	.st15{fill:#F47421;}
</style>
<g>
	<path class="st0" d="M298.24,686.65C124.56,682.96-3.99,559.58,1.57,399.22c5.04-145.25,132.95-266.94,300.64-264.55
		c173.21,2.48,297.87,134.78,292.91,286.89C590.39,567,453.78,689.95,298.24,686.65z"/>
</g>
<g>
	<path d="M594,393.79c0,0.4,0,0.79,0,1.19c-0.67,1.18-0.16,2.44-0.32,3.66c0.18,1.54-0.38,3.13,0.32,4.64c0,5.34,0,10.67,0,16.01
		c-0.67,1.33-0.16,2.73-0.32,4.09c0.16,1.2-0.35,2.46,0.32,3.62c0,0.59,0,1.19,0,1.78c-0.68,4.48-0.73,9.01-0.88,13.5
		c-0.33,9.83-2.33,19.39-4.55,28.93c-5.8,24.95-15.24,48.68-28.05,71.21c-8.8,15.47-19.25,29.93-30.92,43.63
		c-1.71,2.01-3.54,3.91-5.23,5.94c-0.92,1.1-2.03,2.18-3.7,1.91c-1.84-0.29-2.38-1.76-2.84-3.22c-3.7-11.79-8.46-23.18-14.69-34
		c-7.47-12.96-16.61-24.79-28.24-34.75c-20.12-17.23-43.98-27.28-70.8-31.4c-10.32-1.59-20.69-2.5-31.18-2.38
		c-3.27,0.04-5.92,0.85-8.42,2.72c-5.03,3.76-10.25,7.28-15.94,10.16c-12.21,6.19-25.17,10.09-38.99,11.52
		c-12.07,1.25-24.03,0.74-35.85-1.82c-15.34-3.33-29.39-9.26-41.67-18.57c-3.49-2.65-7.12-4.06-11.81-4.03
		c-21.89,0.17-43.1,3.5-63.3,11.5c-13.4,5.31-25.58,12.49-36.39,21.74c-21.8,18.65-34.75,42.15-43.31,68.13
		c-0.58,1.75-0.58,4.08-2.71,4.76c-2.44,0.78-3.4-1.6-4.63-2.91c-10.45-11.18-19.55-23.27-27.81-35.93
		c-12.95-19.83-22.91-40.92-30.17-63.11c-5.2-15.88-9.25-32.08-10.68-48.63c-1.28-14.83-1.56-29.74-0.87-44.65
		c0.36-7.78,0.22-15.58,1.16-23.33c1.77-14.55,5.13-28.8,9.48-42.85c5.54-17.89,12.98-35.08,22.28-51.55
		c8.95-15.84,19.35-30.79,31.44-44.71c7.73-8.9,15.85-17.45,24.67-25.41c11.25-10.16,23.22-19.5,35.98-27.98
		c14.59-9.7,30.03-18.05,46.24-25.1c24.94-10.84,51.02-18.27,78.18-22.38c10.76-1.63,21.62-1.67,32.48-1.95c1.24,0,2.49,0,3.73,0
		c1.69,0,3.38,0,5.07,0c4.08,0,8.16,0,12.23,0c1.87,0,3.75,0,5.62,0c1.06,0,2.12,0,3.18,0c30.82-0.39,60.24,6.04,89,15.83
		c9.93,3.38,19.64,7.27,29.06,11.7c18.62,8.75,36.14,19.16,52.49,31.29c11.35,8.43,21.81,17.73,31.87,27.45
		c9.26,8.95,17.59,18.63,25.38,28.71c8.78,11.38,16.56,23.36,23.35,35.87c13.32,24.54,22.46,50.4,27.75,77.48
		c1.83,9.36,2.13,18.79,2.7,28.22C593.77,391.47,593.34,392.67,594,393.79z"/>
	<path class="st1" d="M303.64,133.95c-4.28,0.01-8.55,0.02-12.83,0.03c-0.39-0.22-0.37-0.39,0.06-0.52c4.23,0,8.46,0,12.68,0
		c0.25,0.07,0.34,0.17,0.28,0.29C303.78,133.88,303.71,133.95,303.64,133.95z"/>
	<path class="st2" d="M303.64,133.95c-0.02-0.16-0.05-0.33-0.08-0.49c1.9,0,3.8,0,5.71,0c0.45,0.15,0.46,0.32,0.04,0.52
		C307.41,133.97,305.53,133.96,303.64,133.95z"/>
	<path class="st3" d="M594,403.28c-1.1-1.5-0.49-3.18-0.58-4.79c0.23-0.38,0.42-0.37,0.58,0.04C594,400.11,594,401.69,594,403.28z"
		/>
	<path class="st2" d="M290.87,133.46c-0.01,0.17-0.03,0.35-0.06,0.52c-1.69-0.01-3.37-0.02-5.06-0.03
		c-0.25-0.13-0.33-0.25-0.23-0.35c0.09-0.09,0.18-0.14,0.28-0.14C287.49,133.46,289.18,133.46,290.87,133.46z"/>
	<path class="st3" d="M593.43,423.48c0.08-1.41-0.51-2.9,0.57-4.2c0,1.38,0,2.77,0,4.15C593.85,423.85,593.66,423.87,593.43,423.48z
		"/>
	<path class="st4" d="M594,398.53c-0.2,0.01-0.39-0.01-0.58-0.04c0.22-1.17-0.69-2.5,0.58-3.52C594,396.16,594,397.35,594,398.53z"
		/>
	<path class="st2" d="M593.43,423.48c0.19-0.02,0.38-0.04,0.57-0.05c0,1.19,0,2.37,0,3.56
		C592.87,425.96,593.53,424.67,593.43,423.48z"/>
	<path class="st5" d="M285.8,133.46c-0.03,0.16-0.04,0.32-0.05,0.49c-1.26,0.01-2.53,0.01-3.79,0.02c0.02-0.17,0.03-0.33,0.03-0.5
		C283.26,133.46,284.53,133.46,285.8,133.46z"/>
	<path class="st6" d="M309.3,133.98c-0.04-0.17-0.05-0.35-0.04-0.52c1.06,0,2.11,0,3.17,0c0.02,0.16,0.03,0.32,0.04,0.48
		C311.42,133.95,310.36,133.97,309.3,133.98z"/>
	<path class="st7" d="M422.05,340.6c0,64.31-56.12,116.57-125.18,116.55c-68.18-0.02-124.24-52.53-124.25-116.49
		c-0.01-65.44,57.27-117.38,126.43-116.86C366.29,224.31,422.05,276.85,422.05,340.6z"/>
	<path class="st8" d="M319.33,687.66c1.68-0.46,2.87-0.45,4.52-0.06C322.21,688.08,321.01,687.99,319.33,687.66z"/>
	<path class="st9" d="M81.46,601.57c-1.24-0.54-1.84-1.03-2.14-2.15C80.44,599.75,80.97,600.33,81.46,601.57z"/>
	<path class="st9" d="M95.81,614.81c-1.32-0.4-1.88-0.92-2.33-1.96C94.69,613.04,95.19,613.67,95.81,614.81z"/>
	<path class="st8" d="M326.98,687.01c1.3-0.33,2.07-0.42,2.93-0.03C329.05,687.54,328.24,687.38,326.98,687.01z"/>
	<path class="st10" d="M517.12,597.1c0.2,0.17,0.44,0.35,0.43,0.36c-0.22,0.3-0.42,0.67-0.74,0.85c-0.38,0.21-0.59-0.09-0.43-0.4
		C516.55,597.6,516.88,597.36,517.12,597.1z"/>
	<path class="st11" d="M337.87,686.03c0.88-0.75,1.52-0.41,2.4-0.37C339.4,686.41,338.75,686.06,337.87,686.03z"/>
	<path class="st12" d="M332.93,686.48c0.63-0.51,1.66-0.5,1.78-0.21c0.35,0.83-0.55,0.36-0.88,0.44
		C333.59,686.77,333.28,686.58,332.93,686.48z"/>
	<path class="st10" d="M497.75,616.19c-0.31,0.28-0.56,0.57-0.88,0.76c-0.26,0.15-0.67,0.09-0.52-0.28
		c0.13-0.31,0.52-0.54,0.84-0.77C497.24,615.86,497.48,616.04,497.75,616.19z"/>
	<path class="st13" d="M350.76,684.45c-0.24-0.18-0.43-0.32-0.62-0.47c0.28-0.07,0.56-0.18,0.85-0.18c0.17,0,0.34,0.15,0.51,0.23
		C351.27,684.16,351.04,684.29,350.76,684.45z"/>
	<path class="st14" d="M347.06,684.34c0.31,0.11,0.77,0.04,0.57,0.43c-0.08,0.15-0.54,0.15-0.83,0.15c-0.15,0-0.3-0.17-0.45-0.27
		C346.6,684.54,346.86,684.43,347.06,684.34z"/>
	<path class="st12" d="M343.95,685.4c-0.36,0.05-0.65,0.13-0.94,0.1c-0.22-0.02-0.75-0.06-0.3-0.44c0.17-0.15,0.59-0.08,0.89-0.05
		C343.71,685.03,343.79,685.23,343.95,685.4z"/>
</g>
<g>
	<path class="st0" d="M296.83,457.12c-73.22-1.56-127.41-53.63-125.06-121.3c2.13-61.3,56.05-112.66,126.74-111.65
		c73.02,1.05,125.57,56.88,123.48,121.08C419.99,406.62,362.4,458.51,296.83,457.12z"/>
	<path class="st15" d="M246.45,306.6c8.28,8.34,9.94,17.33,12.94,26.3c11.71-33.21,21.78-46.47,8.06-79.98
		c27.79,15.69,40.21,39.51,49.12,67.39c3.45-16,8.68-29.21,20.81-38.78c2.29,0.53,2.29,1.83,2.04,2.86
		c-4.37,18.03,1.84,34.19,10.2,49.93c7.65,14.41,13.97,29.1,13.4,45.61c-0.66,19.02-13.53,36.02-30.98,40.53
		c1.48-4.25,3.44-8.4,4.26-12.73c0.82-4.33,2.94-8.75,0.48-14.04c-4.31,3.72-6.49,8.73-10.93,11.76c-4.54,3.08-9.4,5.54-16.44,7.58
		c14.7-28.05,7.13-52.46-10.52-75.81c1.87,17.41-9.58,29.47-18.76,42.39c-7.16,10.06-12.85,20.4-11.5,33.1
		c0.47,4.42,2.09,8.4,3.31,12.56c0.31,1.05,1.41,2.07,0.53,3.16c-0.92,1.13-2.22,0.65-3.33,0.18c-18.8-7.94-37.8-23.29-38.91-47.2
		c-0.81-17.49,5.37-33.14,11.16-49.08C244.21,324.55,247.42,316.87,246.45,306.6z"/>
</g>
</svg>
